<svg width="24" height="24" viewBox="0 0 24 24" fill="none" xmlns="http://www.w3.org/2000/svg">
<path d="M3 2.75C3 2.02065 3.28973 1.32118 3.80546 0.805456C4.32118 0.289731 5.02065 0 5.75 0L20.25 0C20.4489 0 20.6397 0.0790176 20.7803 0.21967C20.921 0.360322 21 0.551088 21 0.75V21.25C21 21.4489 20.921 21.6397 20.7803 21.7803C20.6397 21.921 20.4489 22 20.25 22H14.25C14.0511 22 13.8603 21.921 13.7197 21.7803C13.579 21.6397 13.5 21.4489 13.5 21.25C13.5 21.0511 13.579 20.8603 13.7197 20.7197C13.8603 20.579 14.0511 20.5 14.25 20.5H19.5V16.5H6C5.60218 16.5 5.22064 16.658 4.93934 16.9393C4.65804 17.2206 4.5 17.6022 4.5 18V18.75C4.5 19.466 4.93 20.084 5.55 20.355C5.72615 20.4385 5.86289 20.5872 5.93125 20.7698C5.99961 20.9523 5.99421 21.1543 5.91621 21.3329C5.8382 21.5116 5.69371 21.6528 5.51336 21.7267C5.333 21.8007 5.13095 21.8015 4.95 21.729C4.37044 21.4759 3.87728 21.0593 3.53093 20.5302C3.18457 20.0011 3.00006 19.3824 3 18.75V2.75ZM19.5 1.5H5.75C5.06 1.5 4.5 2.06 4.5 2.75V15.401C4.95595 15.1375 5.47341 14.9992 6 15H19.5V1.5Z" fill="#7A838E"/>
<path d="M7 18.25C7 18.1837 7.02634 18.1201 7.07322 18.0732C7.12011 18.0263 7.1837 18 7.25 18H12.25C12.3163 18 12.3799 18.0263 12.4268 18.0732C12.4737 18.1201 12.5 18.1837 12.5 18.25V23.26C12.4998 23.306 12.4869 23.3511 12.4627 23.3902C12.4385 23.4293 12.404 23.461 12.3629 23.4818C12.3219 23.5026 12.2759 23.5117 12.23 23.508C12.1842 23.5043 12.1402 23.4881 12.103 23.461L9.897 21.857C9.85428 21.8259 9.80282 21.8092 9.75 21.8092C9.69718 21.8092 9.64572 21.8259 9.603 21.857L7.397 23.46C7.35985 23.487 7.31599 23.5033 7.27021 23.507C7.22444 23.5107 7.17853 23.5017 7.13751 23.4811C7.0965 23.4604 7.06197 23.4288 7.03771 23.3898C7.01345 23.3508 7.00041 23.3059 7 23.26V18.25Z" fill="#7A838E"/>
</svg>
