<svg xmlns="http://www.w3.org/2000/svg" width="18" height="18" fill="none"><path stroke="#fff" stroke-linecap="round" stroke-linejoin="round" d="M8.75 17.25a2.667 2.667 0 1 0 0-5.333 2.667 2.667 0 0 0 0 5.333ZM3.417 6.583a2.667 2.667 0 1 0 0-5.333 2.667 2.667 0 0 0 0 5.333ZM14.083 6.583a2.667 2.667 0 1 0 0-5.333 2.667 2.667 0 0 0 0 5.333Z"/><path stroke="#fff" stroke-linecap="round" stroke-linejoin="round" d="M14.083 6.583v.89a1.778 1.778 0 0 1-1.777 1.777H5.194a1.778 1.778 0 0 1-1.777-1.778v-.889M8.75 9.25v2.667"/></svg>