<svg width="24" height="24" fill="none" xmlns="http://www.w3.org/2000/svg"><g clip-path="url(#a)"><path d="M12 12.23c.825 0 1.531-.24 2.12-.72.587-.478.88-1.054.88-1.727 0-.672-.293-1.248-.88-1.728-.588-.478-1.295-.717-2.12-.717-.825 0-1.531.239-2.118.717C9.294 8.535 9 9.111 9 9.783c0 .673.294 1.249.882 1.727.587.48 1.293.72 2.118.72Zm0 8.988c3.05-2.283 5.313-4.357 6.788-6.222C20.262 13.13 21 11.476 21 10.028c0-2.222-.869-4.04-2.607-5.458C16.656 3.154 14.525 2.446 12 2.446s-4.657.708-6.394 2.124C3.869 5.987 3 7.806 3 10.028c0 1.447.737 3.103 2.213 4.968C6.687 16.86 8.95 18.935 12 21.218ZM12 24c-.2 0-.4-.03-.6-.092a1.936 1.936 0 0 1-.525-.244c-3.65-2.63-6.375-5.07-8.175-7.322C.9 14.089 0 11.985 0 10.028c0-3.057 1.206-5.493 3.62-7.307C6.031.907 8.825 0 12 0c3.175 0 5.968.907 8.38 2.721C22.795 4.535 24 6.971 24 10.028c0 1.957-.9 4.061-2.7 6.314-1.8 2.252-4.525 4.692-8.175 7.322-.15.102-.325.183-.525.244S12.2 24 12 24Z" fill="#7A838E"/></g><defs><clipPath id="a"><path fill="#fff" d="M0 0h24v24H0z"/></clipPath></defs></svg>