<svg width="24" height="24" viewBox="0 0 24 24" fill="none" xmlns="http://www.w3.org/2000/svg">
<path d="M8.4 14C10.716 14 12.6 11.9814 12.6 9.5C12.6 7.01857 10.716 5 8.4 5C6.084 5 4.2 7.01857 4.2 9.5C4.2 11.9814 6.084 14 8.4 14ZM8.4 7.57143C9.396 7.57143 10.2 8.43286 10.2 9.5C10.2 10.5671 9.396 11.4286 8.4 11.4286C7.404 11.4286 6.6 10.5671 6.6 9.5C6.6 8.43286 7.404 7.57143 8.4 7.57143ZM8.4 16.25C5.592 16.25 0 17.7543 0 20.75V23H16.8V20.75C16.8 17.7543 11.208 16.25 8.4 16.25ZM2.808 20.4286C3.816 19.6829 6.252 18.8214 8.4 18.8214C10.548 18.8214 12.984 19.6829 13.992 20.4286H2.808ZM16.848 16.3271C18.24 17.4071 19.2 18.8471 19.2 20.75V23H24V20.75C24 18.1529 19.8 16.6743 16.848 16.3271ZM15.6 14C17.916 14 19.8 11.9814 19.8 9.5C19.8 7.01857 17.916 5 15.6 5C14.952 5 14.352 5.16714 13.8 5.45C14.556 6.59429 15 7.99571 15 9.5C15 11.0043 14.556 12.4057 13.8 13.55C14.352 13.8329 14.952 14 15.6 14Z" fill="#7A838E"/>
</svg>
