<svg width="56" height="56" viewBox="0 0 56 56" fill="none" xmlns="http://www.w3.org/2000/svg">
<path d="M28 4.66666C24.9358 4.66666 21.9016 5.27019 19.0707 6.4428C16.2398 7.61541 13.6675 9.33413 11.5008 11.5008C7.12498 15.8767 4.66666 21.8116 4.66666 28C4.66666 38.3133 11.3633 47.0633 20.6267 50.1667C21.7933 50.3533 22.1667 49.63 22.1667 49V45.0567C15.7033 46.4567 14.3267 41.93 14.3267 41.93C13.2533 39.2233 11.7367 38.5 11.7367 38.5C9.61332 37.0533 11.9 37.1 11.9 37.1C14.2333 37.2633 15.47 39.5033 15.47 39.5033C17.5 43.05 20.93 42 22.26 41.44C22.47 39.9233 23.0767 38.8967 23.73 38.3133C18.55 37.73 13.1133 35.7233 13.1133 26.8333C13.1133 24.2433 14 22.1667 15.5167 20.51C15.2833 19.9267 14.4667 17.5 15.75 14.35C15.75 14.35 17.71 13.72 22.1667 16.73C24.01 16.2167 26.0167 15.96 28 15.96C29.9833 15.96 31.99 16.2167 33.8333 16.73C38.29 13.72 40.25 14.35 40.25 14.35C41.5333 17.5 40.7167 19.9267 40.4833 20.51C42 22.1667 42.8867 24.2433 42.8867 26.8333C42.8867 35.7467 37.4267 37.7067 32.2233 38.29C33.0633 39.0133 33.8333 40.4367 33.8333 42.6067V49C33.8333 49.63 34.2067 50.3767 35.3967 50.1667C44.66 47.04 51.3333 38.3133 51.3333 28C51.3333 24.9358 50.7298 21.9016 49.5572 19.0707C48.3846 16.2398 46.6658 13.6675 44.4991 11.5008C42.3324 9.33413 39.7602 7.61541 36.9293 6.4428C34.0983 5.27019 31.0642 4.66666 28 4.66666Z" fill="white"/>
</svg>
